<svg xmlns="http://www.w3.org/2000/svg" width="1080" height="1350" viewBox="0 0 1080 1350">
  <defs>
    <linearGradient id="bg" x1="0" y1="0" x2="1" y2="1">
      <stop offset="0" stop-color="#181420"/>
      <stop offset="1" stop-color="#2b2440"/>
    </linearGradient>
    <linearGradient id="gold" x1="0" y1="0" x2="1" y2="0">
      <stop offset="0" stop-color="#b9893f"/>
      <stop offset="1" stop-color="#e0bd75"/>
    </linearGradient>
  </defs>
  <a href="https://greenkeepe.github.io/questionario-sposi/" target="_blank">
    <rect width="1080" height="1350" rx="42" fill="url(#bg)"/>
    <circle cx="120" cy="120" r="8" fill="#7fae8c"/>
    <text x="150" y="128" fill="#e0bd75" font-family="Arial,sans-serif" font-size="30" letter-spacing="2">QUESTIONARIO MATRIMONIO</text>
    <path d="M120 230 C260 120 390 340 540 230 S820 120 960 230" fill="none" stroke="#c9a15a" stroke-width="3" opacity=".7"/>
    <circle cx="455" cy="365" r="38" fill="none" stroke="#e0bd75" stroke-width="5"/>
    <circle cx="525" cy="365" r="38" fill="none" stroke="#e0bd75" stroke-width="5"/>
    <path d="M420 470 Q490 410 560 470 M490 410 Q470 380 455 350 M490 410 Q510 380 525 350" fill="none" stroke="#f4ede3" stroke-width="6" stroke-linecap="round"/>
    <text x="540" y="600" text-anchor="middle" fill="#f4ede3" font-family="Georgia,serif" font-size="86">Raccontateci</text>
    <text x="540" y="700" text-anchor="middle" fill="#f4ede3" font-family="Georgia,serif" font-size="86">la vostra festa</text>
    <text x="540" y="815" text-anchor="middle" fill="#c9a15a" font-family="Arial,sans-serif" font-size="31">Qualche minuto per creare insieme</text>
    <text x="540" y="865" text-anchor="middle" fill="#c9a15a" font-family="Arial,sans-serif" font-size="31">la colonna sonora del vostro giorno.</text>
    <rect x="150" y="990" width="780" height="120" rx="60" fill="url(#gold)"/>
    <text x="540" y="1065" text-anchor="middle" fill="#1a1420" font-family="Arial,sans-serif" font-size="34" font-weight="700">APRI IL QUESTIONARIO  →</text>
    <text x="540" y="1220" text-anchor="middle" fill="#b8b0c4" font-family="Arial,sans-serif" font-size="28">Clicca sull'immagine per iniziare</text>
    <text x="540" y="1270" text-anchor="middle" fill="#8f7440" font-family="Arial,sans-serif" font-size="24">Il vostro giorno, la vostra musica.</text>
  </a>
</svg>
